<svg width="378" height="258" viewBox="0 0 378 258" fill="none" xmlns="http://www.w3.org/2000/svg">
<path d="M65 240H26.25C23.0833 240 20.75 239.333 19.25 238C17.9167 236.5 17.25 234.167 17.25 231V69C17.25 65.8333 17.9167 63.5833 19.25 62.25C20.75 60.75 23.0833 60 26.25 60H65C68.1667 60 70.4167 60.75 71.75 62.25C73.25 63.5833 74 65.8333 74 69V123.25H115.75V69C115.75 65.8333 116.417 63.5833 117.75 62.25C119.25 60.75 121.583 60 124.75 60H163.5C166.667 60 168.917 60.75 170.25 62.25C171.75 63.5833 172.5 65.8333 172.5 69V231C172.5 234.167 171.75 236.5 170.25 238C168.917 239.333 166.667 240 163.5 240H124.75C121.583 240 119.25 239.333 117.75 238C116.417 236.5 115.75 234.167 115.75 231V175.5H74V231C74 234.167 73.25 236.5 71.75 238C70.4167 239.333 68.1667 240 65 240ZM311.947 240H215.947C212.781 240 210.447 239.333 208.947 238C207.614 236.5 206.947 234.167 206.947 231V69C206.947 65.8333 207.614 63.5833 208.947 62.25C210.447 60.75 212.781 60 215.947 60H295.697C312.031 60 324.114 63.1667 331.947 69.5C339.781 75.6667 343.697 85.25 343.697 98.25V110.25C343.697 117.25 342.447 123 339.947 127.5C337.614 131.833 333.947 135.083 328.947 137.25C339.614 138.25 347.531 141.917 352.697 148.25C357.864 154.583 360.447 163.833 360.447 176V199C360.447 213 356.447 223.333 348.447 230C340.614 236.667 328.447 240 311.947 240ZM263.197 102.5V129.5H284.447C287.614 129.5 289.947 128.667 291.447 127C293.114 125.333 293.947 122.833 293.947 119.5V112.5C293.947 109.167 293.114 106.667 291.447 105C289.947 103.333 287.614 102.5 284.447 102.5H263.197ZM263.197 168V197.5H295.697C298.864 197.5 301.197 196.667 302.697 195C304.364 193.333 305.197 190.833 305.197 187.5V177.75C305.197 174.417 304.364 172 302.697 170.5C301.197 168.833 298.864 168 295.697 168H263.197Z" fill="black"/>
<path d="M70 240H31.25C28.0833 240 25.75 239.333 24.25 238C22.9167 236.5 22.25 234.167 22.25 231V69C22.25 65.8333 22.9167 63.5833 24.25 62.25C25.75 60.75 28.0833 60 31.25 60H70C73.1667 60 75.4167 60.75 76.75 62.25C78.25 63.5833 79 65.8333 79 69V123.25H120.75V69C120.75 65.8333 121.417 63.5833 122.75 62.25C124.25 60.75 126.583 60 129.75 60H168.5C171.667 60 173.917 60.75 175.25 62.25C176.75 63.5833 177.5 65.8333 177.5 69V231C177.5 234.167 176.75 236.5 175.25 238C173.917 239.333 171.667 240 168.5 240H129.75C126.583 240 124.25 239.333 122.75 238C121.417 236.5 120.75 234.167 120.75 231V175.5H79V231C79 234.167 78.25 236.5 76.75 238C75.4167 239.333 73.1667 240 70 240ZM316.947 240H220.947C217.781 240 215.447 239.333 213.947 238C212.614 236.5 211.947 234.167 211.947 231V69C211.947 65.8333 212.614 63.5833 213.947 62.25C215.447 60.75 217.781 60 220.947 60H300.697C317.031 60 329.114 63.1667 336.947 69.5C344.781 75.6667 348.697 85.25 348.697 98.25V110.25C348.697 117.25 347.447 123 344.947 127.5C342.614 131.833 338.947 135.083 333.947 137.25C344.614 138.25 352.531 141.917 357.697 148.25C362.864 154.583 365.447 163.833 365.447 176V199C365.447 213 361.447 223.333 353.447 230C345.614 236.667 333.447 240 316.947 240ZM268.197 102.5V129.5H289.447C292.614 129.5 294.947 128.667 296.447 127C298.114 125.333 298.947 122.833 298.947 119.5V112.5C298.947 109.167 298.114 106.667 296.447 105C294.947 103.333 292.614 102.5 289.447 102.5H268.197ZM268.197 168V197.5H300.697C303.864 197.5 306.197 196.667 307.697 195C309.364 193.333 310.197 190.833 310.197 187.5V177.75C310.197 174.417 309.364 172 307.697 170.5C306.197 168.833 303.864 168 300.697 168H268.197Z" fill="#7E74F0"/>
</svg>
